<svg width="20" height="21" viewBox="0 0 20 21" fill="none" xmlns="http://www.w3.org/2000/svg">
<path d="M17.3199 6.16865L17.3203 6.16901C17.3419 6.19061 17.3591 6.21626 17.3708 6.24449C17.3825 6.27272 17.3885 6.30299 17.3885 6.33355C17.3885 6.36412 17.3825 6.39439 17.3708 6.42262C17.3591 6.45085 17.3419 6.4765 17.3203 6.4981L17.3199 6.49846L14.3316 9.48679L14.3312 9.48715C14.3096 9.50878 14.284 9.52594 14.2557 9.53765C14.2275 9.54936 14.1972 9.55539 14.1667 9.55539C14.1361 9.55539 14.1058 9.54936 14.0776 9.53765L13.8572 10.0691L14.0776 9.53765C14.0494 9.52594 14.0237 9.50878 14.0021 9.48715L14.0018 9.48679L11.0134 6.49846L11.0131 6.49809C10.9914 6.4765 10.9743 6.45085 10.9626 6.42262C10.9509 6.39439 10.9448 6.36412 10.9448 6.33355C10.9448 6.30299 10.9509 6.27272 10.9626 6.24449C10.9743 6.21625 10.9914 6.19061 11.0131 6.16901L11.0134 6.16865L14.0018 3.18032L14.0021 3.17996C14.0237 3.15833 14.0494 3.14116 14.0776 3.12945L13.8478 2.57522L14.0776 3.12945C14.1058 3.11775 14.1361 3.11172 14.1667 3.11172C14.1972 3.11172 14.2275 3.11775 14.2557 3.12945C14.284 3.14116 14.3096 3.15833 14.3312 3.17996L14.3316 3.18032L17.3199 6.16865ZM8.33333 9.06689H3.33333C3.27145 9.06689 3.2121 9.0423 3.16834 8.99854C3.12458 8.95479 3.1 8.89544 3.1 8.83355V3.83355C3.1 3.77167 3.12458 3.71232 3.16834 3.66856C3.2121 3.6248 3.27145 3.60022 3.33333 3.60022H8.33333C8.39522 3.60022 8.45457 3.6248 8.49832 3.66856C8.54208 3.71232 8.56667 3.77167 8.56667 3.83355V8.83355C8.56667 8.89544 8.54208 8.95479 8.49832 8.99854C8.45457 9.0423 8.39522 9.06689 8.33333 9.06689ZM8.33333 17.4002H3.33333C3.27145 17.4002 3.2121 17.3756 3.16834 17.3319C3.12458 17.2881 3.1 17.2288 3.1 17.1669V12.1669C3.1 12.105 3.12458 12.0457 3.16834 12.0019C3.2121 11.9581 3.27145 11.9336 3.33333 11.9336H8.33333C8.39522 11.9336 8.45457 11.9581 8.49832 12.0019C8.54208 12.0457 8.56667 12.105 8.56667 12.1669V17.1669C8.56667 17.2288 8.54208 17.2881 8.49833 17.3319C8.45457 17.3756 8.39522 17.4002 8.33333 17.4002ZM16.8317 17.3319C16.7879 17.3756 16.7286 17.4002 16.6667 17.4002H11.6667C11.6048 17.4002 11.5454 17.3756 11.5017 17.3319C11.4579 17.2881 11.4333 17.2288 11.4333 17.1669V12.1669C11.4333 12.105 11.4579 12.0457 11.5017 12.0019C11.5454 11.9581 11.6048 11.9336 11.6667 11.9336H16.6667C16.7285 11.9336 16.7879 11.9581 16.8317 12.0019C16.8754 12.0457 16.9 12.105 16.9 12.1669V17.1669C16.9 17.2288 16.8754 17.2881 16.8317 17.3319L17.2559 17.7561L16.8317 17.3319Z" stroke="#255E87" stroke-width="1.2"/>
</svg>
