<svg width="24" height="24" viewBox="0 0 24 24" fill="none" xmlns="http://www.w3.org/2000/svg">
<g clip-path="url(#clip0_6613_16419)">
<path d="M0.6 12C0.6 5.69839 5.69896 0.6 12 0.6C18.3016 0.6 23.4 5.69896 23.4 12C23.4 18.3016 18.301 23.4 12 23.4C5.69839 23.4 0.6 18.3009 0.6 12ZM1.07442 12C1.07442 18.025 5.9751 22.9256 12 22.9256C18.025 22.9256 22.9256 18.025 22.9256 12C22.9256 5.97505 18.025 1.07442 12 1.07442C5.9751 1.07442 1.07442 5.97505 1.07442 12Z" fill="#99ABB4" stroke="white" stroke-width="1.2"/>
<path d="M11.9913 15.2988C11.3873 15.2988 10.8984 15.7988 10.8984 16.3988C10.8984 16.9845 11.373 17.4988 11.9913 17.4988C12.6096 17.4988 13.0984 16.9845 13.0984 16.3988C13.0984 15.7988 12.5952 15.2988 11.9913 15.2988Z" fill="white"/>
<path d="M11.8705 5.40039C9.69726 5.40039 8.69922 6.7701 8.69922 7.69459C8.69922 8.36229 9.23044 8.67049 9.66506 8.67049C10.5344 8.67049 10.1802 7.35215 11.8222 7.35215C12.627 7.35215 13.271 7.72883 13.271 8.51639C13.271 9.44088 12.3695 9.97161 11.8383 10.451C11.3714 10.8789 10.7597 11.5809 10.7597 13.0533C10.7597 13.9436 10.9851 14.2004 11.6451 14.2004C12.4338 14.2004 12.5948 13.8238 12.5948 13.4984C12.5948 12.6081 12.6109 12.0945 13.4963 11.3583C13.9309 10.9988 15.2992 9.83458 15.2992 8.22527C15.2992 6.61595 13.9309 5.40039 11.8705 5.40039Z" fill="white"/>
</g>
<defs>
<clipPath id="clip0_6613_16419">
<rect width="24" height="24" fill="white"/>
</clipPath>
</defs>
</svg>
