<svg width="230" height="46" viewBox="0 0 230 46" fill="none" xmlns="http://www.w3.org/2000/svg">
<path d="M0 40.6335V9.9668H25.815C29.0042 9.9668 31.4751 10.7674 33.2277 12.3687C35.009 13.9699 35.8997 16.4004 35.8997 19.6601C35.8997 22.4336 35.2532 24.6068 33.9603 26.1794C32.6674 27.7521 30.8286 28.7386 28.4439 29.1389L35.5549 40.6335H27.7113L21.1174 29.3533H6.89549V40.6335H0ZM24.9962 15.5426H6.89549V23.7347L24.9962 23.7775C26.2603 23.7775 27.2228 23.463 27.8837 22.834C28.5732 22.2049 28.918 21.1469 28.918 19.6601C28.918 18.1446 28.5732 17.0866 27.8837 16.4862C27.2228 15.8571 26.2603 15.5426 24.9962 15.5426Z" fill="#255E87"/>
<path d="M48.8341 40.6335L62.7113 9.9668H73.3562L87.2334 40.6335H79.7345L76.804 34.1571H59.2635L56.333 40.6335H48.8341ZM61.7632 28.5813H74.3043L68.3139 15.3281H67.7536L61.7632 28.5813Z" fill="#255E87"/>
<path d="M145.464 40.6335V9.9668H179.252V15.5426H152.359V22.3193H176.752V27.895H152.359V35.0578H179.252V40.6335H145.464Z" fill="#255E87"/>
<path d="M194.316 40.6335V9.9668H201.298L223.105 32.0125V9.9668H230V40.6335H223.019L201.212 18.5449V40.6335H194.316Z" fill="#255E87"/>
<path d="M134.503 0.90983C134.546 1.20411 134.604 1.49629 134.628 1.79127C134.904 5.12246 134.956 8.46062 134.926 11.8009C134.917 12.8315 134.892 13.8643 134.825 14.8922C134.799 15.2347 134.69 15.5655 134.509 15.8559C133.214 17.897 131.59 19.6585 129.876 21.3391C128.65 22.5427 127.368 23.6821 125.933 24.6305C125.847 24.6828 125.757 24.7294 125.664 24.77L125.802 24.9464C128.477 23.8946 131.015 22.5147 133.359 20.8377L133.446 20.9298C133.42 21.0476 133.388 21.164 133.35 21.2784C132.136 24.4276 130.589 27.3857 128.569 30.0949C127.76 31.1806 126.704 31.8529 125.555 32.4526C124.045 33.2399 122.496 33.917 120.822 34.2657C120.378 34.3563 119.931 34.4288 119.488 34.5599C121.059 34.9379 122.638 34.9553 124.326 34.6597C124.2 34.8689 124.131 35.0118 124.042 35.1366C121.828 38.1999 119.215 40.946 116.273 43.3004C115.497 43.928 114.676 44.4942 113.882 45.0988C113.659 45.269 113.469 45.2829 113.232 45.1177C109.177 42.3123 105.682 38.9232 102.786 34.9051C102.748 34.8541 102.714 34.7997 102.686 34.7426C102.67 34.681 102.661 34.6179 102.657 34.5544C104.261 34.8207 105.84 34.8298 107.415 34.3821C107.2 34.3445 106.985 34.3019 106.769 34.2685C104.609 33.9358 102.682 32.9902 100.744 32.023C99.1297 31.2169 98.1915 29.8118 97.2388 28.4038C95.7357 26.1821 94.5688 23.7777 93.603 21.2721C93.5395 21.1055 93.5068 20.9284 93.5066 20.7498C95.9258 22.4074 98.4615 23.7895 101.164 24.8432L101.233 24.7379C101.09 24.6263 100.949 24.512 100.804 24.4046C97.4971 21.9751 94.6494 19.0902 92.3486 15.6662C92.1992 15.4444 92.113 15.1854 92.0992 14.9173C92.0496 12.4299 91.9773 9.94247 92.0069 7.45575C92.031 5.47182 92.1846 3.48999 92.29 1.50815C92.3031 1.2606 92.372 1.02001 92.4154 0.77106L92.5091 0.767578C92.5601 0.864508 92.6193 0.957946 92.6606 1.05836C94.3036 5.01576 96.5107 8.63984 99.0119 12.091C102.079 16.3238 105.625 20.1271 109.24 23.876C111.078 25.7832 112.722 27.8585 113.886 30.2657C114.23 30.9812 114.309 31.0786 114.474 31.8652C114.547 32.2188 114.474 33.0278 114.474 33.609C114.474 34.1903 114.474 34.7716 114.329 34.9169C114.183 35.0622 115.346 34.9169 115.637 34.1903C115.952 33.7105 116.076 32.5098 116.363 32.0106C116.437 31.8822 116.732 31.7148 116.85 31.6534C117.739 31.196 118.046 30.3668 118.26 29.4687C118.549 28.2602 118.107 26.4885 117.962 26.0526C117.816 25.6166 117.623 24.919 117.526 24.3088C117.468 23.9427 118.022 23.3914 118.297 23.1313C121.911 19.7333 125.195 15.9932 128.104 11.962C130.519 8.60846 132.631 5.07504 134.235 1.24456C134.282 1.13089 134.342 1.0228 134.397 0.912622L134.503 0.90983Z" fill="#255E87"/>
</svg>
