<svg width="130" height="26" viewBox="0 0 130 26" fill="none" xmlns="http://www.w3.org/2000/svg">
<path d="M0.345703 22.9152V5.67383H14.8594C16.6524 5.67383 18.0415 6.12395 19.0269 7.0242C20.0284 7.92445 20.5291 9.2909 20.5291 11.1236C20.5291 12.6829 20.1657 13.9047 19.4388 14.7889C18.7119 15.673 17.6781 16.2276 16.3374 16.4527L20.3353 22.9152H15.9255L12.2183 16.5733H4.22247V22.9152H0.345703ZM14.399 8.80862H4.22247V13.4144L14.399 13.4385C15.1097 13.4385 15.6509 13.2616 16.0224 12.908C16.4101 12.5543 16.6039 11.9595 16.6039 11.1236C16.6039 10.2715 16.4101 9.67672 16.0224 9.33913C15.6509 8.98546 15.1097 8.80862 14.399 8.80862Z" fill="white"/>
<path d="M27.8011 22.9152L35.6031 5.67383H41.5879L49.3899 22.9152H45.1739L43.5263 19.274H33.6647L32.0171 22.9152H27.8011ZM35.0701 16.1392H42.1209L38.753 8.68806H38.438L35.0701 16.1392Z" fill="white"/>
<path d="M82.1279 22.9152V5.67383H101.124V8.80862H86.0047V12.6186H99.7188V15.7534H86.0047V19.7804H101.124V22.9152H82.1279Z" fill="white"/>
<path d="M109.594 22.9152V5.67383H113.519L125.779 18.0683V5.67383H129.656V22.9152H125.731L113.471 10.4966V22.9152H109.594Z" fill="white"/>
<path d="M75.9642 0.579976C75.9882 0.745424 76.0211 0.909697 76.0347 1.07554C76.1896 2.94839 76.219 4.82517 76.202 6.70312C76.197 7.28258 76.183 7.86321 76.1455 8.44111C76.1306 8.63366 76.0696 8.81964 75.9677 8.98293C75.2396 10.1305 74.3264 11.1208 73.3632 12.0657C72.6734 12.7424 71.953 13.383 71.1463 13.9162C71.0976 13.9456 71.047 13.9718 70.9949 13.9946L71.0723 14.0938C72.5766 13.5024 74.0035 12.7266 75.3213 11.7838L75.3701 11.8355C75.3555 11.9018 75.3376 11.9672 75.3163 12.0316C74.6335 13.8021 73.7636 15.4652 72.6281 16.9883C72.1734 17.5988 71.5797 17.9767 70.9337 18.3139C70.0847 18.7565 69.2137 19.1372 68.2726 19.3332C68.0232 19.3842 67.7715 19.425 67.5224 19.4987C68.4058 19.7112 69.2935 19.721 70.2424 19.5547C70.1719 19.6724 70.1332 19.7527 70.0828 19.8229C68.838 21.5451 67.3689 23.0891 65.7153 24.4127C65.2789 24.7656 64.8172 25.0839 64.371 25.4238C64.2452 25.5195 64.1387 25.5273 64.0054 25.4344C61.7258 23.8572 59.7607 21.9518 58.1326 19.6927C58.1111 19.664 58.0922 19.6335 58.076 19.6014C58.0672 19.5667 58.0619 19.5313 58.0601 19.4955C58.9618 19.6453 59.8494 19.6504 60.7348 19.3987C60.6139 19.3775 60.4931 19.3536 60.3715 19.3348C59.1573 19.1478 58.0741 18.6161 56.9846 18.0724C56.0768 17.6191 55.5493 16.8292 55.0137 16.0376C54.1686 14.7885 53.5126 13.4367 52.9696 12.028C52.9339 11.9343 52.9155 11.8348 52.9154 11.7344C54.2755 12.6663 55.7012 13.4434 57.2205 14.0358L57.2592 13.9766C57.1787 13.9138 57.0997 13.8495 57.0179 13.7892C55.1589 12.4232 53.5579 10.8013 52.2643 8.87629C52.1804 8.75159 52.1319 8.60593 52.1241 8.45522C52.0963 7.05675 52.0556 5.65829 52.0722 4.26021C52.0858 3.14481 52.1722 2.03059 52.2314 0.916364C52.2388 0.777184 52.2775 0.641922 52.3019 0.501957L52.3546 0.5C52.3832 0.554496 52.4165 0.607028 52.4398 0.663485C53.3635 2.88841 54.6043 4.92593 56.0106 6.86622C57.7352 9.246 59.7286 11.3843 61.7611 13.492C62.7944 14.5642 63.7185 15.731 64.373 17.0844C64.5666 17.4866 64.6111 17.5414 64.7037 17.9837C64.7447 18.1824 64.7037 18.6373 64.7037 18.9641C64.7037 19.2908 64.7037 19.6176 64.622 19.6993C64.5403 19.781 65.1939 19.6993 65.3573 19.2908C65.5346 19.0211 65.6043 18.3461 65.7658 18.0654C65.8072 17.9932 65.9733 17.8991 66.0395 17.8646C66.5395 17.6074 66.7118 17.1412 66.8323 16.6363C66.9946 15.9568 66.7462 14.9608 66.6645 14.7157C66.5828 14.4706 66.474 14.0783 66.4194 13.7353C66.3868 13.5295 66.6983 13.2195 66.8532 13.0733C68.8847 11.1629 70.7309 9.0601 72.3667 6.79368C73.7245 4.90828 74.9119 2.92173 75.8136 0.768165C75.8403 0.70426 75.874 0.643491 75.9046 0.581546L75.9642 0.579976Z" fill="white"/>
</svg>
